<mxfile host="Electron" modified="2024-11-01T07:01:22.329Z" agent="Mozilla/5.0 (Windows NT 10.0; Win64; x64) AppleWebKit/537.36 (KHTML, like Gecko) draw.io/24.2.5 Chrome/120.0.6099.109 Electron/28.1.0 Safari/537.36" etag="4sz0ajT4CnpYd8ilhz-F" version="24.2.5" type="device">
  <diagram name="第 1 页" id="z6oEG3w2YOVA_7eF-7NK">
    <mxGraphModel dx="819" dy="478" grid="0" gridSize="10" guides="1" tooltips="1" connect="1" arrows="1" fold="1" page="0" pageScale="1" pageWidth="827" pageHeight="1169" math="0" shadow="0">
      <root>
        <mxCell id="0" />
        <mxCell id="1" parent="0" />
        <mxCell id="ydIEp7JqmbvnSmGCKZST-1" value="c++服务器" style="whiteSpace=wrap;html=1;" vertex="1" parent="1">
          <mxGeometry x="48" y="364" width="120" height="60" as="geometry" />
        </mxCell>
        <mxCell id="ydIEp7JqmbvnSmGCKZST-2" value="" style="rounded=1;whiteSpace=wrap;html=1;fillColor=#f8cecc;strokeColor=#b85450;" vertex="1" parent="1">
          <mxGeometry x="249" y="231" width="70" height="367" as="geometry" />
        </mxCell>
        <mxCell id="ydIEp7JqmbvnSmGCKZST-3" value="Kafka" style="text;html=1;align=center;verticalAlign=middle;resizable=0;points=[];autosize=1;strokeColor=none;fillColor=none;" vertex="1" parent="1">
          <mxGeometry x="259.5" y="203" width="49" height="26" as="geometry" />
        </mxCell>
        <mxCell id="ydIEp7JqmbvnSmGCKZST-4" value="" style="edgeStyle=none;orthogonalLoop=1;jettySize=auto;html=1;rounded=0;" edge="1" parent="1">
          <mxGeometry width="100" relative="1" as="geometry">
            <mxPoint x="185" y="385" as="sourcePoint" />
            <mxPoint x="231" y="385" as="targetPoint" />
            <Array as="points" />
          </mxGeometry>
        </mxCell>
        <mxCell id="ydIEp7JqmbvnSmGCKZST-5" value="" style="edgeStyle=none;orthogonalLoop=1;jettySize=auto;html=1;rounded=0;" edge="1" parent="1">
          <mxGeometry width="100" relative="1" as="geometry">
            <mxPoint x="225" y="401" as="sourcePoint" />
            <mxPoint x="185" y="401" as="targetPoint" />
            <Array as="points" />
          </mxGeometry>
        </mxCell>
        <mxCell id="ydIEp7JqmbvnSmGCKZST-6" value="rdkafkacpp.h&lt;div&gt;&lt;br&gt;&lt;/div&gt;" style="text;html=1;align=center;verticalAlign=middle;resizable=0;points=[];autosize=1;strokeColor=none;fillColor=none;" vertex="1" parent="1">
          <mxGeometry x="162" y="355" width="87" height="41" as="geometry" />
        </mxCell>
        <mxCell id="ydIEp7JqmbvnSmGCKZST-7" value="" style="whiteSpace=wrap;html=1;" vertex="1" parent="1">
          <mxGeometry x="411" y="325" width="51" height="42" as="geometry" />
        </mxCell>
      </root>
    </mxGraphModel>
  </diagram>
</mxfile>
